<svg id="Layer_1" data-name="Layer 1" xmlns="http://www.w3.org/2000/svg" viewBox="0 0 841.89 595.28"><defs><style>.cls-1{fill:#fff200;}.cls-1,.cls-2,.cls-4{stroke:#231f20;stroke-miterlimit:10;}.cls-2,.cls-3{fill:#231f20;}.cls-3{font-size:60px;font-family:AmericanTypewriter, American Typewriter;}.cls-4{fill:#8dc63f;}</style></defs><path class="cls-1" d="M236.76,222v15.73c0,2.22-3.56,4-7.94,4s-7.94-1.81-7.94-4V222c0-2.23,3.55-4,7.94-4S236.76,219.8,236.76,222Z"/><path class="cls-2" d="M252.65,222v15.73c0,2.22-3.56,4-8,4s-7.94-1.81-7.94-4V222c0-2.23,3.56-4,7.94-4S252.65,219.8,252.65,222Z"/><path class="cls-1" d="M268.53,222v15.73c0,2.22-3.56,4-7.95,4s-7.93-1.81-7.93-4V222c0-2.23,3.55-4,7.93-4S268.53,219.8,268.53,222Z"/><path class="cls-1" d="M284.41,222v15.73c0,2.22-3.56,4-7.94,4s-7.94-1.81-7.94-4V222c0-2.23,3.55-4,7.94-4S284.41,219.8,284.41,222Z"/><path class="cls-1" d="M300.3,222v15.73c0,2.22-3.56,4-7.95,4s-7.94-1.81-7.94-4V222c0-2.23,3.56-4,7.94-4S300.3,219.8,300.3,222Z"/><path class="cls-2" d="M316.18,222v15.73c0,2.22-3.56,4-7.94,4s-7.94-1.81-7.94-4V222c0-2.23,3.55-4,7.94-4S316.18,219.8,316.18,222Z"/><path class="cls-1" d="M332.06,222v15.73c0,2.22-3.56,4-7.94,4s-7.94-1.81-7.94-4V222c0-2.23,3.55-4,7.94-4S332.06,219.8,332.06,222Z"/><path class="cls-1" d="M348,222v15.73c0,2.22-3.56,4-7.95,4s-7.94-1.81-7.94-4V222c0-2.23,3.56-4,7.94-4S348,219.8,348,222Z"/><path class="cls-2" d="M363.83,222v15.73c0,2.22-3.56,4-7.94,4s-7.94-1.81-7.94-4V222c0-2.23,3.55-4,7.94-4S363.83,219.8,363.83,222Z"/><path class="cls-1" d="M379.72,222v15.73c0,2.22-3.56,4-8,4s-7.94-1.81-7.94-4V222c0-2.23,3.56-4,7.94-4S379.72,219.8,379.72,222Z"/><path class="cls-1" d="M395.6,222v15.73c0,2.22-3.56,4-8,4s-7.93-1.81-7.93-4V222c0-2.23,3.55-4,7.93-4S395.6,219.8,395.6,222Z"/><path class="cls-2" d="M411.48,222v15.73c0,2.22-3.56,4-7.94,4s-7.94-1.81-7.94-4V222c0-2.23,3.55-4,7.94-4S411.48,219.8,411.48,222Z"/><path class="cls-1" d="M427.37,222v15.73c0,2.22-3.56,4-7.95,4s-7.94-1.81-7.94-4V222c0-2.23,3.56-4,7.94-4S427.37,219.8,427.37,222Z"/><path class="cls-1" d="M443.25,222v15.73c0,2.22-3.56,4-7.94,4s-7.94-1.81-7.94-4V222c0-2.23,3.55-4,7.94-4S443.25,219.8,443.25,222Z"/><path class="cls-1" d="M459.13,222v15.73c0,2.22-3.55,4-7.94,4s-7.94-1.81-7.94-4V222c0-2.23,3.55-4,7.94-4S459.13,219.8,459.13,222Z"/><path class="cls-2" d="M475,222v15.73c0,2.22-3.56,4-7.95,4s-7.94-1.81-7.94-4V222c0-2.23,3.56-4,7.94-4S475,219.8,475,222Z"/><path class="cls-1" d="M490.9,222v15.73c0,2.22-3.56,4-7.94,4s-7.94-1.81-7.94-4V222c0-2.23,3.55-4,7.94-4S490.9,219.8,490.9,222Z"/><path class="cls-1" d="M506.79,222v15.73c0,2.22-3.56,4-8,4s-7.94-1.81-7.94-4V222c0-2.23,3.56-4,7.94-4S506.79,219.8,506.79,222Z"/><path class="cls-2" d="M522.67,222v15.73c0,2.22-3.56,4-7.95,4s-7.93-1.81-7.93-4V222c0-2.23,3.55-4,7.93-4S522.67,219.8,522.67,222Z"/><path class="cls-1" d="M538.55,222v15.73c0,2.22-3.56,4-7.94,4s-7.94-1.81-7.94-4V222c0-2.23,3.55-4,7.94-4S538.55,219.8,538.55,222Z"/><path class="cls-1" d="M554.41,221.69a2,2,0,0,1,0,.34v15.73c0,1.37-1.36,2.59-3.45,3.32a13.75,13.75,0,0,1-4.5.71c-4.38,0-7.94-1.81-7.94-4V222a2.61,2.61,0,0,1,.88-1.84"/><path class="cls-2" d="M570.32,223.78v14c0,1.38-1.37,2.59-3.45,3.32a13.73,13.73,0,0,1-4.49.71c-4.39,0-7.94-1.81-7.94-4V222a1.84,1.84,0,0,1,0-.33Q562.6,222.63,570.32,223.78Z"/><path class="cls-2" d="M586.2,226.45v11.31c0,1.37-1.36,2.59-3.44,3.32a13.66,13.66,0,0,1-4.5.71c-4.39,0-7.94-1.81-7.94-4v-14Q578.52,225,586.2,226.45Z"/><path class="cls-1" d="M602.09,229.84v7.92a1.84,1.84,0,0,1,0,.41c-.24,1.2-1.53,2.25-3.4,2.9a0,0,0,0,1,0,0,13.66,13.66,0,0,1-4.5.71c-4.38,0-7.94-1.81-7.94-4V226.45C591.72,227.5,597,228.62,602.09,229.84Z"/><path class="cls-1" d="M236.76,299.26V315c0,2.22-3.56,4-7.94,4s-7.94-1.81-7.94-4V299.26c0-2.23,3.55-4,7.94-4S236.76,297,236.76,299.26Z"/><path class="cls-1" d="M252.65,299.26V315c0,2.22-3.56,4-8,4s-7.94-1.81-7.94-4V299.26c0-2.23,3.56-4,7.94-4S252.65,297,252.65,299.26Z"/><path class="cls-1" d="M268.53,299.26V315c0,2.22-3.56,4-7.95,4s-7.93-1.81-7.93-4V299.26c0-2.23,3.55-4,7.93-4S268.53,297,268.53,299.26Z"/><path class="cls-1" d="M284.41,299.26V315c0,2.22-3.56,4-7.94,4s-7.94-1.81-7.94-4V299.26c0-2.23,3.55-4,7.94-4S284.41,297,284.41,299.26Z"/><path class="cls-1" d="M300.3,299.26V315c0,2.22-3.56,4-7.95,4s-7.94-1.81-7.94-4V299.26c0-2.23,3.56-4,7.94-4S300.3,297,300.3,299.26Z"/><path class="cls-1" d="M316.18,299.26V315c0,2.22-3.56,4-7.94,4s-7.94-1.81-7.94-4V299.26c0-2.23,3.55-4,7.94-4S316.18,297,316.18,299.26Z"/><path class="cls-2" d="M332.06,299.26V315c0,2.22-3.56,4-7.94,4s-7.94-1.81-7.94-4V299.26c0-2.23,3.55-4,7.94-4S332.06,297,332.06,299.26Z"/><path class="cls-1" d="M348,299.26V315c0,2.22-3.56,4-7.95,4s-7.94-1.81-7.94-4V299.26c0-2.23,3.56-4,7.94-4S348,297,348,299.26Z"/><path class="cls-2" d="M363.83,299.26V315c0,2.22-3.56,4-7.94,4s-7.94-1.81-7.94-4V299.26c0-2.23,3.55-4,7.94-4S363.83,297,363.83,299.26Z"/><path class="cls-1" d="M379.72,299.26V315c0,2.22-3.56,4-8,4s-7.94-1.81-7.94-4V299.26c0-2.23,3.56-4,7.94-4S379.72,297,379.72,299.26Z"/><path class="cls-1" d="M395.6,299.26V315c0,2.22-3.56,4-8,4s-7.93-1.81-7.93-4V299.26c0-2.23,3.55-4,7.93-4S395.6,297,395.6,299.26Z"/><path class="cls-1" d="M411.48,299.26V315c0,2.22-3.56,4-7.94,4s-7.94-1.81-7.94-4V299.26c0-2.23,3.55-4,7.94-4S411.48,297,411.48,299.26Z"/><path class="cls-2" d="M427.37,299.26V315c0,2.22-3.56,4-7.95,4s-7.94-1.81-7.94-4V299.26c0-2.23,3.56-4,7.94-4S427.37,297,427.37,299.26Z"/><path class="cls-1" d="M443.25,299.26V315c0,2.22-3.56,4-7.94,4s-7.94-1.81-7.94-4V299.26c0-2.23,3.55-4,7.94-4S443.25,297,443.25,299.26Z"/><path class="cls-1" d="M459.13,299.26V315c0,2.22-3.55,4-7.94,4s-7.94-1.81-7.94-4V299.26c0-2.23,3.55-4,7.94-4S459.13,297,459.13,299.26Z"/><path class="cls-1" d="M475,299.26V315c0,2.22-3.56,4-7.95,4s-7.94-1.81-7.94-4V299.26c0-2.23,3.56-4,7.94-4S475,297,475,299.26Z"/><path class="cls-2" d="M490.9,299.26V315c0,2.22-3.56,4-7.94,4s-7.94-1.81-7.94-4V299.26c0-2.23,3.55-4,7.94-4S490.9,297,490.9,299.26Z"/><path class="cls-1" d="M506.79,299.26V315c0,2.22-3.56,4-8,4s-7.94-1.81-7.94-4V299.26c0-2.23,3.56-4,7.94-4S506.79,297,506.79,299.26Z"/><path class="cls-1" d="M522.67,299.26V315c0,2.22-3.56,4-7.95,4s-7.93-1.81-7.93-4V299.26c0-2.23,3.55-4,7.93-4S522.67,297,522.67,299.26Z"/><path class="cls-1" d="M538.55,299.26V315c0,2.22-3.56,4-7.94,4s-7.94-1.81-7.94-4V299.26c0-2.23,3.55-4,7.94-4S538.55,297,538.55,299.26Z"/><path class="cls-2" d="M554.44,299.26V315a2,2,0,0,1,0,.34c-4.89.56-9.88,1.07-15,1.5a2.61,2.61,0,0,1-.88-1.84V299.26a2.23,2.23,0,0,1,.35-1.19c1-1.65,4-2.84,7.59-2.84a14,14,0,0,1,4.15.6,8,8,0,0,1,.94.34,5.72,5.72,0,0,1,2.28,1.57A2.45,2.45,0,0,1,554.44,299.26Z"/><path class="cls-1" d="M570.32,299.26v14q-7.71,1.15-15.85,2.09a1.84,1.84,0,0,1,0-.33V299.26a2.23,2.23,0,0,1,.35-1.19c1-1.65,4-2.84,7.59-2.84a13.87,13.87,0,0,1,4.14.6,7,7,0,0,1,.94.34,5.72,5.72,0,0,1,2.28,1.57A2.45,2.45,0,0,1,570.32,299.26Z"/><path class="cls-2" d="M586.2,299.26v11.3q-7.66,1.45-15.88,2.67v-14a2.23,2.23,0,0,1,.35-1.19c1-1.65,4-2.84,7.59-2.84a14,14,0,0,1,4.15.6,9.29,9.29,0,0,1,.93.33,5.83,5.83,0,0,1,2.28,1.58A2.45,2.45,0,0,1,586.2,299.26Z"/><path class="cls-1" d="M602.09,299.26v7.91l-2.45.58q-6.48,1.5-13.44,2.81v-11.3a2.23,2.23,0,0,1,.35-1.19c1-1.65,4-2.84,7.59-2.84a14,14,0,0,1,4.15.6,7,7,0,0,1,3.05,1.71A2.53,2.53,0,0,1,602.09,299.26Z"/><path class="cls-1" d="M233.31,240.64v15.72c0,2.23-3.56,4-7.94,4s-7.94-1.81-7.94-4V240.64c0-2.23,3.55-4,7.94-4S233.31,238.41,233.31,240.64Z"/><path class="cls-2" d="M249.2,240.64v15.72c0,2.23-3.56,4-7.95,4s-7.94-1.81-7.94-4V240.64c0-2.23,3.56-4,7.94-4S249.2,238.41,249.2,240.64Z"/><path class="cls-1" d="M265.08,240.64v15.72c0,2.23-3.56,4-7.94,4s-7.94-1.81-7.94-4V240.64c0-2.23,3.55-4,7.94-4S265.08,238.41,265.08,240.64Z"/><path class="cls-1" d="M281,240.64v15.72c0,2.23-3.55,4-7.94,4s-7.94-1.81-7.94-4V240.64c0-2.23,3.56-4,7.94-4S281,238.41,281,240.64Z"/><path class="cls-2" d="M296.85,240.64v15.72c0,2.23-3.56,4-8,4s-7.94-1.81-7.94-4V240.64c0-2.23,3.56-4,7.94-4S296.85,238.41,296.85,240.64Z"/><path class="cls-1" d="M312.73,240.64v15.72c0,2.23-3.56,4-7.94,4s-7.94-1.81-7.94-4V240.64c0-2.23,3.55-4,7.94-4S312.73,238.41,312.73,240.64Z"/><path class="cls-2" d="M328.62,240.64v15.72c0,2.23-3.56,4-7.95,4s-7.94-1.81-7.94-4V240.64c0-2.23,3.56-4,7.94-4S328.62,238.41,328.62,240.64Z"/><path class="cls-1" d="M344.5,240.64v15.72c0,2.23-3.56,4-7.94,4s-7.94-1.81-7.94-4V240.64c0-2.23,3.55-4,7.94-4S344.5,238.41,344.5,240.64Z"/><path class="cls-2" d="M360.38,240.64v15.72c0,2.23-3.56,4-7.94,4s-7.94-1.81-7.94-4V240.64c0-2.23,3.55-4,7.94-4S360.38,238.41,360.38,240.64Z"/><path class="cls-1" d="M376.27,240.64v15.72c0,2.23-3.56,4-7.95,4s-7.94-1.81-7.94-4V240.64c0-2.23,3.56-4,7.94-4S376.27,238.41,376.27,240.64Z"/><path class="cls-2" d="M392.15,240.64v15.72c0,2.23-3.56,4-7.94,4s-7.94-1.81-7.94-4V240.64c0-2.23,3.55-4,7.94-4S392.15,238.41,392.15,240.64Z"/><path class="cls-2" d="M408,240.64v15.72c0,2.23-3.55,4-7.94,4s-7.94-1.81-7.94-4V240.64c0-2.23,3.56-4,7.94-4S408,238.41,408,240.64Z"/><path class="cls-2" d="M423.92,240.64v15.72c0,2.23-3.56,4-7.95,4s-7.94-1.81-7.94-4V240.64c0-2.23,3.56-4,7.94-4S423.92,238.41,423.92,240.64Z"/><path class="cls-1" d="M439.8,240.64v15.72c0,2.23-3.56,4-7.94,4s-7.94-1.81-7.94-4V240.64c0-2.23,3.55-4,7.94-4S439.8,238.41,439.8,240.64Z"/><path class="cls-2" d="M455.69,240.64v15.72c0,2.23-3.56,4-7.95,4s-7.94-1.81-7.94-4V240.64c0-2.23,3.56-4,7.94-4S455.69,238.41,455.69,240.64Z"/><path class="cls-1" d="M471.57,240.64v15.72c0,2.23-3.56,4-7.94,4s-7.94-1.81-7.94-4V240.64c0-2.23,3.55-4,7.94-4S471.57,238.41,471.57,240.64Z"/><path class="cls-1" d="M487.45,240.64v15.72c0,2.23-3.56,4-7.94,4s-7.94-1.81-7.94-4V240.64c0-2.23,3.55-4,7.94-4S487.45,238.41,487.45,240.64Z"/><path class="cls-1" d="M503.34,240.64v15.72c0,2.23-3.56,4-7.95,4s-7.94-1.81-7.94-4V240.64c0-2.23,3.56-4,7.94-4S503.34,238.41,503.34,240.64Z"/><path class="cls-1" d="M519.22,240.64v15.72c0,2.23-3.56,4-7.94,4s-7.94-1.81-7.94-4V240.64c0-2.23,3.55-4,7.94-4S519.22,238.41,519.22,240.64Z"/><path class="cls-2" d="M535.1,240.64v15.72c0,2.23-3.55,4-7.94,4s-7.94-1.81-7.94-4V240.64c0-2.23,3.56-4,7.94-4S535.1,238.41,535.1,240.64Z"/><path class="cls-1" d="M551,240.64v15.72c0,2.23-3.56,4-8,4s-7.94-1.81-7.94-4V240.64c0-2.23,3.56-4,7.94-4S551,238.41,551,240.64Z"/><path class="cls-1" d="M566.87,240.64v15.72c0,2.23-3.56,4-7.94,4s-7.94-1.81-7.94-4V240.64c0-2.23,3.55-4,7.94-4S566.87,238.41,566.87,240.64Z"/><path class="cls-1" d="M582.76,240.64v15.72c0,2.23-3.56,4-8,4s-7.94-1.81-7.94-4V240.64c0-2.23,3.56-4,7.94-4S582.76,238.41,582.76,240.64Z"/><path class="cls-2" d="M598.64,240.64v15.72c0,2.23-3.56,4-7.94,4s-7.94-1.81-7.94-4V240.64c0-2.23,3.55-4,7.94-4S598.64,238.41,598.64,240.64Z"/><path class="cls-1" d="M236.76,260.64v15.73c0,2.23-3.56,4-7.94,4s-7.94-1.8-7.94-4V260.64c0-2.22,3.55-4,7.94-4S236.76,258.42,236.76,260.64Z"/><path class="cls-1" d="M252.65,260.64v15.73c0,2.23-3.56,4-8,4s-7.94-1.8-7.94-4V260.64c0-2.22,3.56-4,7.94-4S252.65,258.42,252.65,260.64Z"/><path class="cls-1" d="M268.53,260.64v15.73c0,2.23-3.56,4-7.95,4s-7.93-1.8-7.93-4V260.64c0-2.22,3.55-4,7.93-4S268.53,258.42,268.53,260.64Z"/><path class="cls-1" d="M284.41,260.64v15.73c0,2.23-3.56,4-7.94,4s-7.94-1.8-7.94-4V260.64c0-2.22,3.55-4,7.94-4S284.41,258.42,284.41,260.64Z"/><path class="cls-1" d="M300.3,260.64v15.73c0,2.23-3.56,4-7.95,4s-7.94-1.8-7.94-4V260.64c0-2.22,3.56-4,7.94-4S300.3,258.42,300.3,260.64Z"/><path class="cls-1" d="M316.18,260.64v15.73c0,2.23-3.56,4-7.94,4s-7.94-1.8-7.94-4V260.64c0-2.22,3.55-4,7.94-4S316.18,258.42,316.18,260.64Z"/><path class="cls-1" d="M332.06,260.64v15.73c0,2.23-3.56,4-7.94,4s-7.94-1.8-7.94-4V260.64c0-2.22,3.55-4,7.94-4S332.06,258.42,332.06,260.64Z"/><path class="cls-2" d="M348,260.64v15.73c0,2.23-3.56,4-7.95,4s-7.94-1.8-7.94-4V260.64c0-2.22,3.56-4,7.94-4S348,258.42,348,260.64Z"/><path class="cls-1" d="M363.83,260.64v15.73c0,2.23-3.56,4-7.94,4s-7.94-1.8-7.94-4V260.64c0-2.22,3.55-4,7.94-4S363.83,258.42,363.83,260.64Z"/><path class="cls-1" d="M379.72,260.64v15.73c0,2.23-3.56,4-8,4s-7.94-1.8-7.94-4V260.64c0-2.22,3.56-4,7.94-4S379.72,258.42,379.72,260.64Z"/><path class="cls-1" d="M395.6,260.64v15.73c0,2.23-3.56,4-8,4s-7.93-1.8-7.93-4V260.64c0-2.22,3.55-4,7.93-4S395.6,258.42,395.6,260.64Z"/><path class="cls-1" d="M411.48,260.64v15.73c0,2.23-3.56,4-7.94,4s-7.94-1.8-7.94-4V260.64c0-2.22,3.55-4,7.94-4S411.48,258.42,411.48,260.64Z"/><path class="cls-2" d="M427.37,260.64v15.73c0,2.23-3.56,4-7.95,4s-7.94-1.8-7.94-4V260.64c0-2.22,3.56-4,7.94-4S427.37,258.42,427.37,260.64Z"/><path class="cls-1" d="M443.25,260.64v15.73c0,2.23-3.56,4-7.94,4s-7.94-1.8-7.94-4V260.64c0-2.22,3.55-4,7.94-4S443.25,258.42,443.25,260.64Z"/><path class="cls-2" d="M459.13,260.64v15.73c0,2.23-3.55,4-7.94,4s-7.94-1.8-7.94-4V260.64c0-2.22,3.55-4,7.94-4S459.13,258.42,459.13,260.64Z"/><path class="cls-1" d="M475,260.64v15.73c0,2.23-3.56,4-7.95,4s-7.94-1.8-7.94-4V260.64c0-2.22,3.56-4,7.94-4S475,258.42,475,260.64Z"/><path class="cls-1" d="M490.9,260.64v15.73c0,2.23-3.56,4-7.94,4s-7.94-1.8-7.94-4V260.64c0-2.22,3.55-4,7.94-4S490.9,258.42,490.9,260.64Z"/><path class="cls-2" d="M506.79,260.64v15.73c0,2.23-3.56,4-8,4s-7.94-1.8-7.94-4V260.64c0-2.22,3.56-4,7.94-4S506.79,258.42,506.79,260.64Z"/><path class="cls-2" d="M522.67,260.64v15.73c0,2.23-3.56,4-7.95,4s-7.93-1.8-7.93-4V260.64c0-2.22,3.55-4,7.93-4S522.67,258.42,522.67,260.64Z"/><path class="cls-1" d="M538.55,260.64v15.73c0,2.23-3.56,4-7.94,4s-7.94-1.8-7.94-4V260.64c0-2.22,3.55-4,7.94-4S538.55,258.42,538.55,260.64Z"/><path class="cls-1" d="M554.44,260.64v15.73c0,2.23-3.56,4-8,4s-7.94-1.8-7.94-4V260.64c0-2.22,3.56-4,7.94-4S554.44,258.42,554.44,260.64Z"/><path class="cls-1" d="M570.32,260.64v15.73c0,2.23-3.56,4-7.94,4s-7.94-1.8-7.94-4V260.64c0-2.22,3.55-4,7.94-4S570.32,258.42,570.32,260.64Z"/><path class="cls-1" d="M586.2,260.64v15.73c0,2.23-3.55,4-7.94,4s-7.94-1.8-7.94-4V260.64c0-2.22,3.55-4,7.94-4S586.2,258.42,586.2,260.64Z"/><path class="cls-2" d="M602.09,260.64v15.73c0,2.23-3.56,4-8,4s-7.94-1.8-7.94-4V260.64c0-2.22,3.56-4,7.94-4S602.09,258.42,602.09,260.64Z"/><path class="cls-1" d="M233.31,278.91v15.73c0,2.23-3.56,4-7.94,4s-7.94-1.8-7.94-4V278.91c0-2.22,3.55-4,7.94-4S233.31,276.69,233.31,278.91Z"/><path class="cls-1" d="M249.2,278.91v15.73c0,2.23-3.56,4-7.95,4s-7.94-1.8-7.94-4V278.91c0-2.22,3.56-4,7.94-4S249.2,276.69,249.2,278.91Z"/><path class="cls-1" d="M265.08,278.91v15.73c0,2.23-3.56,4-7.94,4s-7.94-1.8-7.94-4V278.91c0-2.22,3.55-4,7.94-4S265.08,276.69,265.08,278.91Z"/><path class="cls-1" d="M281,278.91v15.73c0,2.23-3.55,4-7.94,4s-7.94-1.8-7.94-4V278.91c0-2.22,3.56-4,7.94-4S281,276.69,281,278.91Z"/><path class="cls-1" d="M296.85,278.91v15.73c0,2.23-3.56,4-8,4s-7.94-1.8-7.94-4V278.91c0-2.22,3.56-4,7.94-4S296.85,276.69,296.85,278.91Z"/><path class="cls-1" d="M312.73,278.91v15.73c0,2.23-3.56,4-7.94,4s-7.94-1.8-7.94-4V278.91c0-2.22,3.55-4,7.94-4S312.73,276.69,312.73,278.91Z"/><path class="cls-2" d="M328.62,278.91v15.73c0,2.23-3.56,4-7.95,4s-7.94-1.8-7.94-4V278.91c0-2.22,3.56-4,7.94-4S328.62,276.69,328.62,278.91Z"/><path class="cls-1" d="M344.5,278.91v15.73c0,2.23-3.56,4-7.94,4s-7.94-1.8-7.94-4V278.91c0-2.22,3.55-4,7.94-4S344.5,276.69,344.5,278.91Z"/><path class="cls-1" d="M360.38,278.91v15.73c0,2.23-3.56,4-7.94,4s-7.94-1.8-7.94-4V278.91c0-2.22,3.55-4,7.94-4S360.38,276.69,360.38,278.91Z"/><path class="cls-2" d="M376.27,278.91v15.73c0,2.23-3.56,4-7.95,4s-7.94-1.8-7.94-4V278.91c0-2.22,3.56-4,7.94-4S376.27,276.69,376.27,278.91Z"/><path class="cls-1" d="M392.15,278.91v15.73c0,2.23-3.56,4-7.94,4s-7.94-1.8-7.94-4V278.91c0-2.22,3.55-4,7.94-4S392.15,276.69,392.15,278.91Z"/><path class="cls-1" d="M408,278.91v15.73c0,2.23-3.55,4-7.94,4s-7.94-1.8-7.94-4V278.91c0-2.22,3.56-4,7.94-4S408,276.69,408,278.91Z"/><path class="cls-1" d="M423.92,278.91v15.73c0,2.23-3.56,4-7.95,4s-7.94-1.8-7.94-4V278.91c0-2.22,3.56-4,7.94-4S423.92,276.69,423.92,278.91Z"/><path class="cls-1" d="M439.8,278.91v15.73c0,2.23-3.56,4-7.94,4s-7.94-1.8-7.94-4V278.91c0-2.22,3.55-4,7.94-4S439.8,276.69,439.8,278.91Z"/><path class="cls-2" d="M455.69,278.91v15.73c0,2.23-3.56,4-7.95,4s-7.94-1.8-7.94-4V278.91c0-2.22,3.56-4,7.94-4S455.69,276.69,455.69,278.91Z"/><path class="cls-2" d="M472.57,278.91v15.73c0,2.23-3.56,4-7.94,4s-7.94-1.8-7.94-4V278.91c0-2.22,3.55-4,7.94-4S472.57,276.69,472.57,278.91Z"/><path class="cls-1" d="M487.45,278.91v15.73c0,2.23-3.56,4-7.94,4s-7.94-1.8-7.94-4V278.91c0-2.22,3.55-4,7.94-4S487.45,276.69,487.45,278.91Z"/><path class="cls-1" d="M503.34,278.91v15.73c0,2.23-3.56,4-7.95,4s-7.94-1.8-7.94-4V278.91c0-2.22,3.56-4,7.94-4S503.34,276.69,503.34,278.91Z"/><path class="cls-1" d="M519.22,278.91v15.73c0,2.23-3.56,4-7.94,4s-7.94-1.8-7.94-4V278.91c0-2.22,3.55-4,7.94-4S519.22,276.69,519.22,278.91Z"/><path class="cls-2" d="M535.1,278.91v15.73c0,2.23-3.55,4-7.94,4s-7.94-1.8-7.94-4V278.91c0-2.22,3.56-4,7.94-4S535.1,276.69,535.1,278.91Z"/><path class="cls-1" d="M551,278.91v15.73c0,2.23-3.56,4-8,4s-7.94-1.8-7.94-4V278.91c0-2.22,3.56-4,7.94-4S551,276.69,551,278.91Z"/><path class="cls-2" d="M566.87,278.91v15.73c0,2.23-3.56,4-7.94,4s-7.94-1.8-7.94-4V278.91c0-2.22,3.55-4,7.94-4S566.87,276.69,566.87,278.91Z"/><path class="cls-2" d="M582.76,278.91v15.73c0,2.23-3.56,4-8,4s-7.94-1.8-7.94-4V278.91c0-2.22,3.56-4,7.94-4S582.76,276.69,582.76,278.91Z"/><path class="cls-1" d="M598.64,278.91v15.73c0,2.23-3.56,4-7.94,4s-7.94-1.8-7.94-4V278.91c0-2.22,3.55-4,7.94-4S598.64,276.69,598.64,278.91Z"/><path class="cls-2" d="M616.55,233.69q-6.84-2-14.46-3.85v7.32a1.79,1.79,0,0,0,.25.92c.87,1.62,4,2.81,7.69,2.81a14.53,14.53,0,0,0,4.24-.59,6.78,6.78,0,0,0,3-1.62,2.22,2.22,0,0,0,.69-1.52v-3"/><path class="cls-2" d="M614.52,241.23v14.54c0,2.06-3.56,3.73-7.94,3.73s-7.94-1.67-7.94-3.73V241.23c0-2.06,3.55-3.73,7.94-3.73S614.52,239.17,614.52,241.23Z"/><path class="cls-1" d="M615.52,261.24v14.54c0,2.06-3.56,3.73-7.94,3.73s-7.94-1.67-7.94-3.73V261.24c0-2.06,3.55-3.73,7.94-3.73S615.52,259.18,615.52,261.24Z"/><path class="cls-1" d="M614.52,279.51v14.54c0,2.06-3.56,3.73-7.94,3.73s-7.94-1.67-7.94-3.73V279.51c0-2.06,3.55-3.73,7.94-3.73S614.52,277.45,614.52,279.51Z"/><path class="cls-2" d="M615.52,303.63v-3.78c0-1-.8-1.86-2.11-2.53a8.94,8.94,0,0,0-1.39-.56,15,15,0,0,0-4.44-.64,13.74,13.74,0,0,0-5.44,1h0a7.28,7.28,0,0,0-.79.4,2.92,2.92,0,0,0-1.7,2.31v7.9l2.45-.58c3.81-.9,7.49-1.85,11-2.85"/><path class="cls-1" d="M629,260.65v13.22c0,1.87-3.56,3.39-7.94,3.39s-7.94-1.52-7.94-3.39V260.65c0-1.87,3.55-3.39,7.94-3.39S629,258.78,629,260.65Z"/><path class="cls-1" d="M616.55,233.69v3.56a2,2,0,0,0,.73,1.43,5.13,5.13,0,0,0,1.14.76,14.07,14.07,0,0,0,6.06,1.2,18.13,18.13,0,0,0,2.62-.19c.34,0,.68-.11,1-.19a8.18,8.18,0,0,0,3.47-1.48c-1.13-.43-2.29-.87-3.47-1.3-3.2-1.16-6.58-2.29-10.13-3.36"/><path class="cls-1" d="M629,242.64v13.22c0,1.87-3.56,3.39-7.94,3.39s-7.94-1.52-7.94-3.39V242.64c0-1.87,3.55-3.39,7.94-3.39S629,240.77,629,242.64Z"/><path class="cls-2" d="M630,279.92v13.22c0,1.87-3.56,3.39-7.94,3.39s-7.94-1.52-7.94-3.39V279.92c0-1.87,3.55-3.39,7.94-3.39S630,278.05,630,279.92Z"/><path class="cls-1" d="M629,299.21v-.95a2.39,2.39,0,0,0-1.33-1.88,7.64,7.64,0,0,0-.95-.5,14.78,14.78,0,0,0-5.66-1,15.91,15.91,0,0,0-4.67.65,5.55,5.55,0,0,0-3,1.8,1.67,1.67,0,0,0-.31.94v6.06l2.42-.69q6.42-1.87,12.13-3.94"/><path class="cls-2" d="M643.54,269.26v13.22c0,1.88-3.56,3.39-7.95,3.39s-7.94-1.51-7.94-3.39V269.26c0-1.87,3.56-3.39,7.94-3.39S643.54,267.39,643.54,269.26Z"/><path class="cls-2" d="M644,244.34v2.53a2.22,2.22,0,0,1-1.09,1.71,5.41,5.41,0,0,1-.53.35,13.6,13.6,0,0,1-6.32,1.33,14.52,14.52,0,0,1-5.76-1.06,5.52,5.52,0,0,1-1.3-.78,2.08,2.08,0,0,1-.88-1.55v-9.39c1.18.43,2.34.87,3.47,1.3,4.1,1.6,7.89,3.27,11.32,5Z"/><path class="cls-1" d="M644.54,251.26v13.22c0,1.87-3.56,3.39-7.95,3.39s-7.94-1.52-7.94-3.39V251.26c0-1.87,3.56-3.39,7.94-3.39S644.54,249.39,644.54,251.26Z"/><path class="cls-1" d="M629,299.21a132.83,132.83,0,0,0,14.56-6.31v-4.37c0-.88-.79-1.69-2.1-2.29a10.36,10.36,0,0,0-2.28-.73h0a17.12,17.12,0,0,0-7.08,0h0a10.77,10.77,0,0,0-2,.62c-1.44.62-2.33,1.47-2.33,2.4v11.16"/><path class="cls-1" d="M657.32,277.34v6.49a66.2,66.2,0,0,1-13.74,9.05l0,0c-1.3-.61-2.1-1.41-2.1-2.3V277.34c0-.89.8-1.69,2.1-2.3.24-.11.49-.21.75-.31a15.83,15.83,0,0,1,5.09-.78,14,14,0,0,1,6.08,1.21,3.8,3.8,0,0,1,1.66,1.42A1.6,1.6,0,0,1,657.32,277.34Z"/><path class="cls-1" d="M642.89,243.78V254c0,.77.62,1.49,1.65,2.06a7.59,7.59,0,0,0,1.25.55h0a15.55,15.55,0,0,0,5,.77,15.72,15.72,0,0,0,4.57-.63h0a8.26,8.26,0,0,0,1.16-.42,3.7,3.7,0,0,0,2.11-1.82l-2.11-1.92a66.91,66.91,0,0,0-12.59-8.2"/><path class="cls-2" d="M658.32,259.33v13.22c0,1.88-3.56,3.39-7.94,3.39s-7.94-1.51-7.94-3.39V259.33c0-1.87,3.55-3.39,7.94-3.39S658.32,257.46,658.32,259.33Z"/><path class="cls-1" d="M656.57,252.54v11.79a2.43,2.43,0,0,0,1.36,1.9l.39.23a13.87,13.87,0,0,0,6.19,1.26c.39,0,.77,0,1.14,0a14.91,14.91,0,0,0-.59-3.35,23,23,0,0,0-6.38-9.87"/><path class="cls-2" d="M665.67,268.51c0,5-2.53,9.77-7.24,14.3a3.26,3.26,0,0,1-1.11-1.11,1.6,1.6,0,0,1-.2-.76V267.72a2,2,0,0,1,.81-1.49,2.88,2.88,0,0,1,.39-.3,12.64,12.64,0,0,1,6.74-1.6,14.91,14.91,0,0,1,.59,3.35C665.66,268,665.67,268.23,665.67,268.51Z"/><text class="cls-3" transform="translate(287.75 391.84)">yUMItools</text><path class="cls-4" d="M558.09,207.42c-15.93,17.69-87.11,41.44-183.41,59.37-56.41,10.5-111.64,17.17-157,19.66a18.66,18.66,0,0,1-5.19-5.86c-13-24.51,71.16-55.36,187.91-68.93C459.38,204.81,515.41,203.68,558.09,207.42Z"/><path class="cls-4" d="M563.47,328.89c-16.64-16.29-88.92-36.59-186.2-50.57-57-8.18-112.63-12.76-158.25-13.69a17.76,17.76,0,0,0-5,5.74c-12.09,23.68,73.45,50.32,191.07,59.49C464.55,334.5,520.8,333.79,563.47,328.89Z"/><ellipse class="cls-4" cx="195.43" cy="271.96" rx="6.37" ry="17.93"/><ellipse class="cls-4" cx="197.01" cy="271.96" rx="6.37" ry="17.93"/><ellipse class="cls-4" cx="197.01" cy="271.96" rx="6.37" ry="17.93"/><ellipse class="cls-4" cx="198.6" cy="271.96" rx="6.37" ry="17.93"/><ellipse class="cls-4" cx="200.22" cy="271.96" rx="6.37" ry="17.93"/><ellipse class="cls-4" cx="201.8" cy="271.96" rx="6.37" ry="17.93"/><ellipse class="cls-4" cx="201.8" cy="271.96" rx="6.37" ry="17.93"/><ellipse class="cls-4" cx="203.38" cy="271.96" rx="6.37" ry="17.93"/><ellipse class="cls-4" cx="204.96" cy="271.96" rx="6.37" ry="17.93"/><ellipse class="cls-4" cx="206.55" cy="271.96" rx="6.37" ry="17.93"/><ellipse class="cls-4" cx="206.55" cy="271.96" rx="6.37" ry="17.93"/><ellipse class="cls-4" cx="208.13" cy="271.96" rx="6.37" ry="17.93"/><ellipse class="cls-4" cx="209.75" cy="271.96" rx="6.37" ry="17.93"/><ellipse class="cls-4" cx="211.33" cy="271.96" rx="6.37" ry="17.93"/><ellipse class="cls-4" cx="211.33" cy="271.96" rx="6.37" ry="17.93"/><path class="cls-4" d="M554.31,194.82c-17.93,14.72-95.41,33.49-199.54,46.79-26.61,3.4-52.93,6.18-78.2,8.33h0c-33.1,6.62-58.26,22.95-64.24,41.84-.12-.89-.22-1.78-.28-2.68l-2.85-41.53c-1.09-15.88,8.91-29.49,22.36-30.42l4-.27c36.86-9.36,89.23-17.26,149.42-21.65C448.58,190.6,508.73,190.78,554.31,194.82Z"/><path class="cls-4" d="M551.13,342.13c-18-14.81-95.47-33.67-199.63-47-26.61-3.41-52.94-6.2-78.21-8.34h0C240.16,280.13,215,263.7,209,244.7c-.12.88-.21,1.78-.28,2.69l-2.78,41.82c-1.07,16,9,29.68,22.41,30.6l4,.28c36.88,9.41,89.26,17.33,149.46,21.72C445.4,346.43,505.55,346.22,551.13,342.13Z"/></svg>